<svg xmlns="http://www.w3.org/2000/svg" xmlns:xlink="http://www.w3.org/1999/xlink" width="290.11" height="94" viewBox="0 0 290.11 94">
  <defs>
    <style>
      .cls-1 {
        isolation: isolate;
      }

      .cls-2 {
        fill: url(#linear-gradient);
      }

      .cls-11, .cls-13, .cls-3 {
        opacity: 0.5;
        mix-blend-mode: multiply;
      }

      .cls-3 {
        fill: url(#linear-gradient-2);
      }

      .cls-4 {
        font-size: 80px;
        fill: #303056;
        font-family: FuturaPT-Demi, Futura PT;
      }

      .cls-5 {
        letter-spacing: -0.01em;
      }

      .cls-6 {
        letter-spacing: -0.02em;
      }

      .cls-7 {
        letter-spacing: -0.02em;
      }

      .cls-8 {
        letter-spacing: -0.03em;
      }

      .cls-9 {
        fill: url(#linear-gradient-3);
      }

      .cls-10 {
        fill: url(#linear-gradient-4);
      }

      .cls-11 {
        fill: url(#linear-gradient-5);
      }

      .cls-12 {
        fill: url(#linear-gradient-6);
      }

      .cls-13 {
        fill: url(#radial-gradient);
      }
    </style>
    <linearGradient id="linear-gradient" x1="709.78" y1="45.31" x2="651.91" y2="103.19" gradientTransform="translate(-626.35 -15.22)" gradientUnits="userSpaceOnUse">
      <stop offset="0" stop-color="#3aabbb"/>
      <stop offset="0.97" stop-color="#328284"/>
    </linearGradient>
    <linearGradient id="linear-gradient-2" x1="712.05" y1="69.98" x2="643.02" y2="69.98" gradientTransform="translate(-626.35 -15.22)" gradientUnits="userSpaceOnUse">
      <stop offset="0" stop-color="#3aabbb" stop-opacity="0"/>
      <stop offset="0.97" stop-color="#328284"/>
    </linearGradient>
    <linearGradient id="linear-gradient-3" x1="675.86" y1="19.58" x2="622.34" y2="73.11" gradientTransform="translate(-626.35 -15.22)" gradientUnits="userSpaceOnUse">
      <stop offset="0" stop-color="#84ff00"/>
      <stop offset="0.98" stop-color="#63e4ff"/>
    </linearGradient>
    <linearGradient id="linear-gradient-4" x1="696.04" y1="26.87" x2="634.71" y2="88.19" gradientTransform="translate(-626.35 -15.22)" gradientUnits="userSpaceOnUse">
      <stop offset="0" stop-color="#44d7ae"/>
      <stop offset="1" stop-color="#3c96a6"/>
    </linearGradient>
    <linearGradient id="linear-gradient-5" x1="701.65" y1="55.82" x2="636.82" y2="55.82" gradientTransform="translate(-626.35 -15.22)" gradientUnits="userSpaceOnUse">
      <stop offset="0" stop-color="#44d7ae" stop-opacity="0"/>
      <stop offset="0.01" stop-color="#44d6ae" stop-opacity="0.02"/>
      <stop offset="0.12" stop-color="#42c5ac" stop-opacity="0.28"/>
      <stop offset="0.24" stop-color="#40b6aa" stop-opacity="0.5"/>
      <stop offset="0.37" stop-color="#3faba9" stop-opacity="0.68"/>
      <stop offset="0.5" stop-color="#3da2a7" stop-opacity="0.82"/>
      <stop offset="0.64" stop-color="#3d9ba7" stop-opacity="0.92"/>
      <stop offset="0.8" stop-color="#3c97a6" stop-opacity="0.98"/>
      <stop offset="1" stop-color="#3c96a6"/>
    </linearGradient>
    <linearGradient id="linear-gradient-6" x1="-30.6" y1="137.53" x2="2551.83" y2="-2444.9" gradientTransform="translate(84.75 94) rotate(180)" gradientUnits="userSpaceOnUse">
      <stop offset="0" stop-color="#62dd00"/>
      <stop offset="0.97" stop-color="#328284"/>
    </linearGradient>
    <radialGradient id="radial-gradient" cx="53.59" cy="55.99" r="33.63" gradientTransform="translate(84.75 94) rotate(180)" gradientUnits="userSpaceOnUse">
      <stop offset="0" stop-color="#62a800"/>
      <stop offset="0.12" stop-color="#5fa509" stop-opacity="0.93"/>
      <stop offset="0.33" stop-color="#569f21" stop-opacity="0.75"/>
      <stop offset="0.62" stop-color="#489347" stop-opacity="0.46"/>
      <stop offset="0.95" stop-color="#35847c" stop-opacity="0.06"/>
      <stop offset="1" stop-color="#328284" stop-opacity="0"/>
    </radialGradient>
  </defs>
  <title>testAsset 2</title>
  <g class="cls-1">
    <g id="Layer_2" data-name="Layer 2">
      <g id="Layer_1-2" data-name="Layer 1">
        <path class="cls-2" d="M67.49,18c-.55,1.21-3.21-.52-2.76,1.4.38,1.68,4.55,2.52,5,4.19.68,2.4-2.57,0-1.43,3.6.26.81,4,3.35,3.36,4.39s-3.84-.47-4.52.46c-1.24,1.71,4.71,7.48,3.18,8.55-.77.54-2.61-1.17-3-.09-.51,1.49.67,3.74.72,5.27.16,5.69-1.69,1.47-2.51,3.11-1.23,2.49.47,5.89-1.31,7.61-.39.38-1.61-2.19-2.64-1.42-1.44,1.09-.82,4.25-1.87,5.61-3,3.84-1.61-1-4.81.78-1.65.89-1.81,5.31-3.12,6.82-.13.15-1.49-1.19-2.2-.53-1,1-1.2,2.72-2.26,3.61-2.82,2.36-2.63.59-5.22,1.92-1.68.85-2.58,3.08-4.24,4-.74.41-2.11-.35-2-.39-1.12.52-3.32,2.36-4.93,3.15-3.51,1.71-.53,1.17-4.38-.88-1.45-.77-2.67-1.87-4-2.47,0,0-.4.63-.44.62-.31-.15-1.87-.51-2.63-.86A13,13,0,0,0,17,76.16a4.05,4.05,0,0,0,.71,1.54c.73,1,.56,2.42,1.43,3.31.64.66,1.55-.91,1.83-.64,1.76,1.72,2.87,5,4.92,6.26,1,.6,1.93-1.23,3.1-.57,1.37.76,2.11,2.66,3.53,3.33.76.35,2.32.71,2.63.86,0,0,.41-.64.44-.62,1.32.6,2.54,1.7,4,2.47,3.85,2.05.87,2.59,4.38.88,1.61-.79,3.81-2.63,4.93-3.15-.07,0,1.3.8,2,.39,1.66-.91,2.56-3.14,4.24-4,2.59-1.33,2.4.44,5.22-1.92,1.06-.89,1.25-2.66,2.26-3.61.71-.66,2.07.68,2.2.53,1.31-1.51,1.47-5.93,3.12-6.82,3.2-1.74,1.84,3.06,4.81-.78,1-1.36.43-4.52,1.87-5.61,1-.77,2.25,1.8,2.64,1.42,1.78-1.72.08-5.12,1.31-7.61.82-1.64,2.67,2.58,2.51-3.11,0-1.53-1.23-3.78-.72-5.27.36-1.08,2.2.63,3,.09,1.53-1.07-4.42-6.84-3.18-8.55.68-.93,3.86.71,4.52-.46s-3.1-3.58-3.36-4.39c-1.14-3.61,2.11-1.2,1.43-3.6-.48-1.67-4.65-2.51-5-4.19-.45-1.92,2.21-.19,2.76-1.4s-5.6-3.56-6.38-4.58c-1.56-2.05.86-.61,1.12-2.09.33-1.86-8.92-3.82-8.19-5.59.39-.93,1.87.13,2.17-.88.25-.81-2-1.53-4.41-2.28C66.38,16.38,67.8,17.28,67.49,18Z"/>
        <path class="cls-3" d="M67.49,18c-.55,1.21-3.21-.52-2.76,1.4.38,1.68,4.55,2.52,5,4.19.68,2.4-2.57,0-1.43,3.6.26.81,4,3.35,3.36,4.39s-3.84-.47-4.52.46c-1.24,1.71,4.71,7.48,3.18,8.55-.77.54-2.61-1.17-3-.09-.51,1.49.67,3.74.72,5.27.16,5.69-1.69,1.47-2.51,3.11-1.23,2.49.47,5.89-1.31,7.61-.39.38-1.61-2.19-2.64-1.42-1.44,1.09-.82,4.25-1.87,5.61-3,3.84-1.61-1-4.81.78-1.65.89-1.81,5.31-3.12,6.82-.13.15-1.49-1.19-2.2-.53-1,1-1.2,2.72-2.26,3.61-2.82,2.36-2.63.59-5.22,1.92-1.68.85-2.58,3.08-4.24,4-.74.41-2.11-.35-2-.39-1.12.52-3.32,2.36-4.93,3.15-3.51,1.71-.53,1.17-4.38-.88-1.45-.77-2.67-1.87-4-2.47,0,0-.4.63-.44.62-.31-.15-1.87-.51-2.63-.86A13,13,0,0,0,17,76.16a4.05,4.05,0,0,0,.71,1.54c.73,1,.56,2.42,1.43,3.31.64.66,1.55-.91,1.83-.64,1.76,1.72,2.87,5,4.92,6.26,1,.6,1.93-1.23,3.1-.57,1.37.76,2.11,2.66,3.53,3.33.76.35,2.32.71,2.63.86,0,0,.41-.64.44-.62,1.32.6,2.54,1.7,4,2.47,3.85,2.05.87,2.59,4.38.88,1.61-.79,3.81-2.63,4.93-3.15-.07,0,1.3.8,2,.39,1.66-.91,2.56-3.14,4.24-4,2.59-1.33,2.4.44,5.22-1.92,1.06-.89,1.25-2.66,2.26-3.61.71-.66,2.07.68,2.2.53,1.31-1.51,1.47-5.93,3.12-6.82,3.2-1.74,1.84,3.06,4.81-.78,1-1.36.43-4.52,1.87-5.61,1-.77,2.25,1.8,2.64,1.42,1.78-1.72.08-5.12,1.31-7.61.82-1.64,2.67,2.58,2.51-3.11,0-1.53-1.23-3.78-.72-5.27.36-1.08,2.2.63,3,.09,1.53-1.07-4.42-6.84-3.18-8.55.68-.93,3.86.71,4.52-.46s-3.1-3.58-3.36-4.39c-1.14-3.61,2.11-1.2,1.43-3.6-.48-1.67-4.65-2.51-5-4.19-.45-1.92,2.21-.19,2.76-1.4s-5.6-3.56-6.38-4.58c-1.56-2.05.86-.61,1.12-2.09.33-1.86-8.92-3.82-8.19-5.59.39-.93,1.87.13,2.17-.88.25-.81-2-1.53-4.41-2.28C66.38,16.38,67.8,17.28,67.49,18Z"/>
        <text class="cls-4" transform="translate(95.73 69.55)"><tspan class="cls-5">u</tspan><tspan class="cls-6" x="41.68" y="0">l</tspan><tspan class="cls-7" x="59.51" y="0">m</tspan><tspan class="cls-8" x="121.4" y="0">u</tspan><tspan x="162.06" y="0">s</tspan></text>
        <path class="cls-9" d="M4.15,61.17c.28-.17.69-.39,1.3-.69,1.61-.79,3.81-2.63,4.93-3.15-.07,0,1.3.8,2,.39,1.66-.91,2.56-3.14,4.24-4,2.59-1.33,2.4.44,5.22-1.92,1.06-.89,1.25-2.66,2.26-3.61.71-.66,2.07.68,2.2.53,1.31-1.51,1.47-5.93,3.12-6.82,3.2-1.74,1.84,3.06,4.81-.78,1-1.36.43-4.52,1.87-5.61,1-.77,2.25,1.8,2.64,1.42,1.78-1.72.08-5.12,1.31-7.61.82-1.64,2.67,2.58,2.51-3.11-.05-1.53-1.23-3.78-.72-5.27.36-1.08,2.2.63,3,.09,1.53-1.07-4.42-6.84-3.18-8.55.68-.93,3.86.71,4.52-.46s-3.1-3.58-3.36-4.39C41.69,4,44.94,6.44,44.26,4,43.89,2.76,41.36,2,40,.91c-3.7,1.87-11.36,5.88-11.18,4.82-.18,1.1,2.22.58,2.19,1.63-.06,2-10.2,1.88-9.91,3.9.19,1.37,3.29.05,3.78,1.23,1,2.27-10.34,3.54-9.8,5.32.3,1,1.78,0,2.17.88.79,1.9-8.53,3.67-8.19,5.59.26,1.47,2.61.14,1.12,2.09-.61.8-6.92,3.38-6.38,4.58.67,1.48,1.43,1.46,1.8,1.31s.28-.12,0,0a20.73,20.73,0,0,0-2.4,2.9C2.39,36.28.74,36.44,1.36,37.7c.15.3,3.82-.06,2.78,1.12-.76.86-4.21,3.67-4.14,4.72.2,2.92,2.12-.68,3.37,1.31,1.1,1.76.64,0,0,3C3.3,48.37,0,52.89,1,53.54c2.44,1.71,1.81-1.9,2.85,1.83.31,1.12-.66,2.88-1.06,4.37A7.61,7.61,0,0,1,4.15,61.17Z"/>
        <path class="cls-10" d="M21.24,80a3.38,3.38,0,0,0-1.13.83c-.59.53-.79.36-1.05.25a2.83,2.83,0,0,1-.84-1.74,4.19,4.19,0,0,0-.73-1.74,8.45,8.45,0,0,1-.63-1.41,2.87,2.87,0,0,0-.23-.84,2.19,2.19,0,0,0-.52-.72,1.5,1.5,0,0,0-.65-.37,1,1,0,0,0-.89.47A5.59,5.59,0,0,1,13.06,76c-.25.06-.81.2-1.29-.63A7.68,7.68,0,0,1,11,72.45l0-.58s4.39-.92,5.31,0a6.18,6.18,0,0,1,1.24,2.8c.28-.17.69-.39,1.3-.69,1.62-.79,3.82-2.63,4.94-3.15-.07,0,1.3.8,2.05.39,1.66-.91,2.56-3.14,4.24-4,2.6-1.33,2.41.44,5.23-1.92,1.07-.89,1.26-2.66,2.27-3.61.71-.66,2.08.68,2.21.53,1.31-1.51,1.48-5.93,3.12-6.82,3.21-1.74,1.85,3.06,4.83-.78,1.05-1.36.43-4.52,1.87-5.61,1-.77,2.25,1.8,2.65,1.42,1.78-1.72.08-5.12,1.31-7.61.82-1.64,2.68,2.58,2.51-3.11,0-1.53-1.23-3.78-.72-5.27.37-1.08,2.21.63,3,.09,1.53-1.07-4.43-6.84-3.19-8.55.68-.93,3.87.71,4.53-.46S56.55,22,56.3,21.14c-1.14-3.61,2.11-1.2,1.43-3.6-.48-1.67-4.66-2.51-5-4.19-.44-1.92,2.23-.19,2.78-1.4s-5.62-3.56-6.4-4.58c-1.57-2,.86-.61,1.13-2.09C50.49,3.54,42.38,1.71,42,0c.64.26,8.88,4.26,12.21,5.44a.63.63,0,0,0-.16.22c-.12.28,0,.58.36.88-.57.13-1.13.27-1.12.79,0,1.36,4.71,1.73,7.64,2.46.86.49,1.42,1,1.33,1.46a.8.8,0,0,1-.52.67c-.95,0-2-.12-2.31.54-.51,1.21,2.56,2.15,5.41,3,1.58.85,3,1.75,2.69,2.42-.55,1.21-3.21-.52-2.77,1.4.38,1.68,4.56,2.52,5,4.19.69,2.4-2.57,0-1.43,3.6.26.81,4,3.35,3.37,4.39s-3.85-.47-4.53.46c-1.24,1.71,4.72,7.48,3.19,8.55-.77.54-2.62-1.17-3-.09-.51,1.49.67,3.74.72,5.27.16,5.69-1.7,1.47-2.51,3.11-1.24,2.49.46,5.89-1.32,7.61-.39.38-1.61-2.19-2.64-1.42-1.45,1.09-.82,4.25-1.87,5.61-3,3.84-1.62-1-4.83.78-1.65.89-1.81,5.31-3.12,6.82-.14.15-1.5-1.19-2.21-.53-1,1-1.21,2.72-2.27,3.61-2.82,2.36-2.63.59-5.23,1.92-1.69.85-2.59,3.08-4.24,4-.75.41-2.12-.35-2.05-.39-1.12.52-3.33,2.36-4.95,3.15-3.51,1.71-.53,1.17-4.38-.88A12.2,12.2,0,0,0,21.24,80Z"/>
        <path class="cls-11" d="M21.24,80a3.38,3.38,0,0,0-1.13.83c-.59.53-.79.36-1.05.25a2.83,2.83,0,0,1-.84-1.74,4.19,4.19,0,0,0-.73-1.74,8.45,8.45,0,0,1-.63-1.41,2.87,2.87,0,0,0-.23-.84,2.19,2.19,0,0,0-.52-.72,1.5,1.5,0,0,0-.65-.37,1,1,0,0,0-.89.47A5.59,5.59,0,0,1,13.06,76c-.25.06-.81.2-1.29-.63A7.68,7.68,0,0,1,11,72.45l0-.58s4.39-.92,5.31,0a6.18,6.18,0,0,1,1.24,2.8c.28-.17.69-.39,1.3-.69,1.62-.79,3.82-2.63,4.94-3.15-.07,0,1.3.8,2.05.39,1.66-.91,2.56-3.14,4.24-4,2.6-1.33,2.41.44,5.23-1.92,1.07-.89,1.26-2.66,2.27-3.61.71-.66,2.08.68,2.21.53,1.31-1.51,1.48-5.93,3.12-6.82,3.21-1.74,1.85,3.06,4.83-.78,1.05-1.36.43-4.52,1.87-5.61,1-.77,2.25,1.8,2.65,1.42,1.78-1.72.08-5.12,1.31-7.61.82-1.64,2.68,2.58,2.51-3.11,0-1.53-1.23-3.78-.72-5.27.37-1.08,2.21.63,3,.09,1.53-1.07-4.43-6.84-3.19-8.55.68-.93,3.87.71,4.53-.46S56.55,22,56.3,21.14c-1.14-3.61,2.11-1.2,1.43-3.6-.48-1.67-4.66-2.51-5-4.19-.44-1.92,2.23-.19,2.78-1.4s-5.62-3.56-6.4-4.58c-1.57-2,.86-.61,1.13-2.09C50.49,3.54,42.38,1.71,42,0c.64.26,8.88,4.26,12.21,5.44a.63.63,0,0,0-.16.22c-.12.28,0,.58.36.88-.57.13-1.13.27-1.12.79,0,1.36,4.71,1.73,7.64,2.46.86.49,1.42,1,1.33,1.46a.8.8,0,0,1-.52.67c-.95,0-2-.12-2.31.54-.51,1.21,2.56,2.15,5.41,3,1.58.85,3,1.75,2.69,2.42-.55,1.21-3.21-.52-2.77,1.4.38,1.68,4.56,2.52,5,4.19.69,2.4-2.57,0-1.43,3.6.26.81,4,3.35,3.37,4.39s-3.85-.47-4.53.46c-1.24,1.71,4.72,7.48,3.19,8.55-.77.54-2.62-1.17-3-.09-.51,1.49.67,3.74.72,5.27.16,5.69-1.7,1.47-2.51,3.11-1.24,2.49.46,5.89-1.32,7.61-.39.38-1.61-2.19-2.64-1.42-1.45,1.09-.82,4.25-1.87,5.61-3,3.84-1.62-1-4.83.78-1.65.89-1.81,5.31-3.12,6.82-.14.15-1.5-1.19-2.21-.53-1,1-1.21,2.72-2.27,3.61-2.82,2.36-2.63.59-5.23,1.92-1.69.85-2.59,3.08-4.24,4-.75.41-2.12-.35-2.05-.39-1.12.52-3.33,2.36-4.95,3.15-3.51,1.71-.53,1.17-4.38-.88A12.2,12.2,0,0,0,21.24,80Z"/>
        <path class="cls-12" d="M4.7,64.7a7,7,0,0,0-1-2.43,2,2,0,0,1-1-.76,1.43,1.43,0,0,1-.09-.27,3,3,0,0,1,.11-1.5,7.61,7.61,0,0,1,1.4,1.43c.28-.17.69-.39,1.3-.69,1.61-.79,3.81-2.63,4.93-3.15-.07,0,1.3.8,2,.39,1.66-.91,2.56-3.14,4.24-4,2.59-1.33,2.4.44,5.22-1.92,1.06-.89,1.25-2.66,2.26-3.61.71-.66,2.07.68,2.2.53,1.31-1.51,1.47-5.93,3.12-6.82,3.2-1.74,1.84,3.06,4.81-.78,1-1.36.43-4.52,1.87-5.61,1-.77,2.25,1.8,2.64,1.42,1.78-1.72.08-5.12,1.31-7.61.82-1.64,2.67,2.58,2.51-3.11-.05-1.53-1.23-3.78-.72-5.27.36-1.08,2.2.63,3,.09,1.53-1.07-4.42-6.84-3.18-8.55.68-.93,3.86.71,4.52-.46s-3.1-3.58-3.36-4.39C41.69,4,44.94,6.44,44.26,4,43.89,2.76,41.36,2,40,.91A15.86,15.86,0,0,1,42,0L42,0c.42,1.68,8.52,3.51,8.21,5.25-.26,1.48-2.68,0-1.12,2.09.78,1,7,3.24,6.38,4.58s-3.21-.52-2.76,1.4c.38,1.68,4.55,2.52,5,4.19.68,2.4-2.57,0-1.43,3.6.26.81,4,3.35,3.36,4.39s-3.84-.47-4.52.46c-1.24,1.71,4.71,7.48,3.18,8.55-.77.54-2.61-1.17-3-.09-.51,1.49.67,3.74.72,5.27.16,5.69-1.69,1.47-2.51,3.11-1.23,2.49.47,5.89-1.31,7.61-.39.38-1.61-2.19-2.64-1.42-1.44,1.09-.82,4.25-1.87,5.61-3,3.84-1.61-1-4.81.78-1.65.89-1.81,5.31-3.12,6.82-.13.15-1.49-1.19-2.2-.53-1,.95-1.2,2.72-2.26,3.61-2.82,2.36-2.63.59-5.22,1.92-1.68.85-2.58,3.08-4.24,4-.74.41-2.11-.35-2-.39-1.12.52-3.32,2.36-4.93,3.15-.61.3-1,.52-1.3.69,0,0-3.86,1.54-4.61,1.32s-1.4-.29-1.8-2.77A27.38,27.38,0,0,0,8.43,67.9s-.9.42-1,1.18-1.6-1.43-1.6-1.43A7.41,7.41,0,0,1,4.7,64.7Z"/>
        <path class="cls-13" d="M4.7,64.7a7,7,0,0,0-1-2.43,2,2,0,0,1-1-.76,1.43,1.43,0,0,1-.09-.27,3,3,0,0,1,.11-1.5,7.61,7.61,0,0,1,1.4,1.43c.28-.17.69-.39,1.3-.69,1.61-.79,3.81-2.63,4.93-3.15-.07,0,1.3.8,2,.39,1.66-.91,2.56-3.14,4.24-4,2.59-1.33,2.4.44,5.22-1.92,1.06-.89,1.25-2.66,2.26-3.61.71-.66,2.07.68,2.2.53,1.31-1.51,1.47-5.93,3.12-6.82,3.2-1.74,1.84,3.06,4.81-.78,1-1.36.43-4.52,1.87-5.61,1-.77,2.25,1.8,2.64,1.42,1.78-1.72.08-5.12,1.31-7.61.82-1.64,2.67,2.58,2.51-3.11-.05-1.53-1.23-3.78-.72-5.27.36-1.08,2.2.63,3,.09,1.53-1.07-4.42-6.84-3.18-8.55.68-.93,3.86.71,4.52-.46s-3.1-3.58-3.36-4.39C41.69,4,44.94,6.44,44.26,4,43.89,2.76,41.36,2,40,.91A15.86,15.86,0,0,1,42,0L42,0c.42,1.68,8.52,3.51,8.21,5.25-.26,1.48-2.68,0-1.12,2.09.78,1,7,3.24,6.38,4.58s-3.21-.52-2.76,1.4c.38,1.68,4.55,2.52,5,4.19.68,2.4-2.57,0-1.43,3.6.26.81,4,3.35,3.36,4.39s-3.84-.47-4.52.46c-1.24,1.71,4.71,7.48,3.18,8.55-.77.54-2.61-1.17-3-.09-.51,1.49.67,3.74.72,5.27.16,5.69-1.69,1.47-2.51,3.11-1.23,2.49.47,5.89-1.31,7.61-.39.38-1.61-2.19-2.64-1.42-1.44,1.09-.82,4.25-1.87,5.61-3,3.84-1.61-1-4.81.78-1.65.89-1.81,5.31-3.12,6.82-.13.15-1.49-1.19-2.2-.53-1,.95-1.2,2.72-2.26,3.61-2.82,2.36-2.63.59-5.22,1.92-1.68.85-2.58,3.08-4.24,4-.74.41-2.11-.35-2-.39-1.12.52-3.32,2.36-4.93,3.15-.61.3-1,.52-1.3.69,0,0-3.86,1.54-4.61,1.32s-1.4-.29-1.8-2.77A27.38,27.38,0,0,0,8.43,67.9s-.9.42-1,1.18-1.6-1.43-1.6-1.43A7.41,7.41,0,0,1,4.7,64.7Z"/>
      </g>
    </g>
  </g>
</svg>
